<?xml version="1.0" standalone="no"?>
<!DOCTYPE svg PUBLIC "-//W3C//DTD SVG 1.1//EN" "http://www.w3.org/Graphics/SVG/1.1/DTD/svg11.dtd" >
<svg xmlns="http://www.w3.org/2000/svg">
<metadata>
Created by FontForge 20120731 at Mon Aug 10 09:56:38 2015
 By Ads
</metadata>
<defs>
<font id="iconfont" horiz-adv-x="1024" >
  <font-face 
    font-family="iconfont"
    font-weight="500"
    font-stretch="normal"
    units-per-em="1024"
    panose-1="2 0 6 3 0 0 0 0 0 0"
    ascent="812"
    descent="-212"
    x-height="792"
    bbox="-0.025641 -224 1024.76 812.026"
    underline-thickness="50"
    underline-position="-100"
    unicode-range="U+0078-E621"
  />
<missing-glyph horiz-adv-x="374" 
d="M34 0v682h272v-682h-272zM68 34h204v614h-204v-614z" />
    <glyph glyph-name=".notdef" horiz-adv-x="374" 
d="M34 0v682h272v-682h-272zM68 34h204v614h-204v-614z" />
    <glyph glyph-name=".null" horiz-adv-x="0" 
 />
    <glyph glyph-name="nonmarkingreturn" horiz-adv-x="341" 
 />
    <glyph glyph-name="x" unicode="x" horiz-adv-x="1001" 
d="M281 543q-27 -1 -53 -1h-83q-18 0 -36.5 -6t-32.5 -18.5t-23 -32t-9 -45.5v-76h912v41q0 16 -0.5 30t-0.5 18q0 13 -5 29t-17 29.5t-31.5 22.5t-49.5 9h-133v-97h-438v97zM955 310v-52q0 -23 0.5 -52t0.5 -58t-10.5 -47.5t-26 -30t-33 -16t-31.5 -4.5q-14 -1 -29.5 -0.5
t-29.5 0.5h-32l-45 128h-439l-44 -128h-29h-34q-20 0 -45 1q-25 0 -41 9.5t-25.5 23t-13.5 29.5t-4 30v167h911zM163 247q-12 0 -21 -8.5t-9 -21.5t9 -21.5t21 -8.5q13 0 22 8.5t9 21.5t-9 21.5t-22 8.5zM316 123q-8 -26 -14 -48q-5 -19 -10.5 -37t-7.5 -25t-3 -15t1 -14.5
t9.5 -10.5t21.5 -4h37h67h81h80h64h36q23 0 34 12t2 38q-5 13 -9.5 30.5t-9.5 34.5q-5 19 -11 39h-368zM336 498v228q0 11 2.5 23t10 21.5t20.5 15.5t34 6h188q31 0 51.5 -14.5t20.5 -52.5v-227h-327z" />
    <glyph glyph-name="uniE600" unicode="&#xe600;" horiz-adv-x="1000" 
d="M763 637q-9 2 -19 2h-504h504q10 0 19 -2zM787 630h-1q-1 1 -2 1q1 0 3 -1zM829 595l-2 2q-1 1 -1.5 2.5t-1.5 2.5q1 -2 2.5 -3.5t2.5 -3.5zM865 44q-4 -1 -9 -1h-16v513q0 10 -3 19q2 -4 2.5 -9t0.5 -10v-513h16q5 0 9 1zM882 48q-4 -1 -8 -3q1 1 2.5 1.5t2.5 1t3 0.5z
M923 729q-28 23 -67 23h-569q-8 0 -15 -1t-14 -3t-13.5 -4.5t-12.5 -6t-11 -8.5q-10 -7 -16.5 -17t-10 -21t-3.5 -22v-30h-17q-6 0 -12 -0.5t-12 -2t-11.5 -3.5t-11 -4.5t-10.5 -5.5t-9 -7q-10 -7 -16.5 -17t-10 -21t-3.5 -22v-592q0 -12 3.5 -23t10 -20.5t16.5 -17.5
q9 -7 19.5 -12t22.5 -7.5t24 -2.5h570q38 0 66 22q30 25 30 61v30h16q39 0 67 22q30 25 30 61v592q0 17 -8 33t-22 27zM790 -36q0 -9 -6 -17t-17 -12.5t-23 -4.5h-570q-33 0 -44 22l-3 12v592q0 7 4 13t10 10.5t15 7.5t18 3h17h49h504q19 0 32.5 -10t13.5 -24v-592zM903 77
q0 -3 -0.5 -5.5t-1.5 -5t-2.5 -5t-3.5 -4.5q-1 0 -1 -0.5t-1 -0.5q-2 -2 -5 -4q-1 -1 -2 -1v-1h-2q-1 -1 -2 -1v-1q-4 -1 -8 -3h-3l-1 -1h-2h-3q-2 -1 -4 -1h-5h-16v513q0 10 -3 19q0 2 -0.5 3.5t-1.5 3.5l-1 1v2l-2 4q-1 3 -3 6t-5 7t-7 8t-7 6q-2 2 -4 3l-1 1v0q-2 2 -4 3
t-4.5 2.5t-4.5 2.5t-5 2h-1q-1 1 -2 1q-2 1 -5 2l-2 1l-9 2l-2 1h-3q-9 2 -19 2h-504v30q0 5 2 10l7 9q2 3 5 5l8 4q3 2 7 3t8.5 2t9.5 1h569q20 0 33.5 -10t13.5 -24v-592zM206 537h366v-49h-366v49zM677 511zM651 511v1q0 7 3.5 13t9.5 9.5t13 3.5t13 -3.5t9.5 -9.5
t3.5 -13v-1v-1q0 -10 -7.5 -18t-18.5 -8q-4 0 -8 1.5t-7 4t-5.5 5.5t-4 7t-1.5 8v1zM127 444h663v-49h-663v49z" />
    <glyph glyph-name="uniE601" unicode="&#xe601;" 
d="M778 -146h-528q-43 0 -74 31t-31 74v633q0 44 31 75t74 31h53v26q0 11 8 18.5t18 7.5h370q11 0 18.5 -7.5t7.5 -18.5v-26h53q14 0 27.5 -4t25.5 -11t21.5 -16.5t16.5 -21t10.5 -25.5t3.5 -28v-633q0 -28 -14 -52.5t-38.5 -38.5t-52.5 -14zM830 592q0 22 -15 37.5
t-37 15.5h-79h-370h-79q-10 0 -20 -4.5t-17 -11.5t-11 -16.5t-4 -20.5v-633q0 -22 15.5 -37t36.5 -15h528q14 0 26 7t19 19t7 26v633zM303 65h422v-53h-422v53zM303 223h422v-53h-422v53zM303 381h422v-53h-422v53zM303 539h422v-52h-422v52zM303 539z" />
    <glyph glyph-name="uniE602" unicode="&#xe602;" 
d="M924 532q-40 0 -68 -28t-28 -67q0 -23 10 -42.5t28 -33.5l-119 -238q-9 4 -19 6t-20 2t-21 -2l-168 394q20 26 20 59q0 40 -28 68t-67 28q-26 0 -48 -13t-35 -35t-13 -48t13 -48l-231 -262q-16 5 -30 5q-40 0 -68 -28t-28 -67.5t28 -67.5t68 -28t68 28t28 68q0 5 -1 10.5
t-2 10.5t-3 10t-4 9.5t-5 9t-6 8.5l226 257q3 -2 5.5 -3t5.5 -2l6 -2q3 -1 6.5 -1.5t6.5 -1t6 -0.5h7q15 0 29 4l166 -389q-26 -28 -26 -66q0 -40 28 -68t67.5 -28t67.5 28t28 68q0 26 -14 49l127 257q1 0 3 -1h4q26 0 48 13t35 35t13 48q0 39 -28 67t-68 28zM100 141
q-8 0 -16 3t-13 8.5t-8.5 13t-3.5 16.5q0 11 5.5 20.5t15 15t20.5 5.5t20.5 -5.5t15 -15t5.5 -20.5q0 -17 -12 -29t-29 -12zM403 582q0 17 12 29t29 12q3 0 7 -0.5t7 -2.5l6 -2q3 -2 6 -4.5t5 -5t4 -5.5t3 -7l2 -6q1 -4 1 -8q0 -17 -12 -29t-29 -12t-29 12t-12 29zM708 -5
q-17 0 -29 12t-12 29q0 11 5.5 20.5t15 15t20.5 5.5q17 0 29 -12t12 -29t-12 -29t-29 -12zM924 396q-17 0 -29 12t-12 29q0 8 3.5 15.5t8.5 13t13 9t16 3.5q17 0 29 -12t12 -29q0 -12 -5.5 -21t-15 -14.5t-20.5 -5.5z" />
    <glyph glyph-name="uniE603" unicode="&#xe603;" 
d="M128 620h576v-64h-576v64zM128 428h576v-64h-576v64zM128 236h576v-64h-576v64zM896 -20h-256l256 256v-256z" />
    <glyph glyph-name="uniE604" unicode="&#xe604;" 
d="M749 606q-22 -17 -47 -31q78 -49 124 -130.5t46 -176.5q0 -98 -48.5 -181.5t-131.5 -132t-181.5 -48.5t-182 48.5t-132 132t-48.5 181.5q0 95 46.5 176.5t124.5 130.5q-4 2 -7 4l-8 4q-3 2 -6 4.5t-6.5 4.5t-7 4.5t-6.5 5t-6 4.5q-81 -57 -128.5 -146t-47.5 -192
q0 -112 55.5 -207.5t151 -151t208 -55.5t208 55.5t150.5 151t55 207.5q0 103 -47 192t-128 146zM505 356q17 0 29 12t12 29v309q0 17 -12 29t-29 12t-28.5 -12t-11.5 -29v-309q0 -17 11.5 -29t28.5 -12z" />
    <glyph glyph-name="uniE605" unicode="&#xe605;" 
d="M873 -212h-721q-54 0 -92.5 37.5t-38.5 90.5v319q0 53 38.5 90.5t92.5 37.5v96q0 72 28.5 137t77 112t115 75t140.5 28q98 0 181 -47t131 -128t48 -177v-2q0 -6 -3 -11.5t-7 -9.5t-10 -6.5t-12 -2.5q-13 0 -22.5 9t-10.5 21v2q0 119 -86.5 203.5t-208.5 84.5
q-48 0 -93 -14.5t-81.5 -41t-63.5 -62t-42 -79.5t-15 -91v-96h655q55 0 93.5 -37.5t38.5 -90.5v-319q0 -18 -5 -34.5t-13.5 -30.5t-20.5 -25.5t-26.5 -20t-31.5 -13t-35 -4.5v0zM939 235q0 18 -9 32.5t-24 23t-33 8.5h-721q-13 0 -25 -5t-21 -13.5t-14 -20.5t-5 -25v-319
q0 -27 19 -45.5t46 -18.5h721q28 0 47 18.5t19 45.5v319v0zM546 50v-102q0 -3 -0.5 -6t-1.5 -5.5t-2.5 -5t-3.5 -4.5t-4 -3.5t-4.5 -3t-5 -2.5t-5.5 -1.5t-6 -0.5q-14 0 -23.5 9.5t-9.5 22.5v102q-29 10 -47 34.5t-18 55.5q0 39 28.5 67t69.5 28t69.5 -28t28.5 -67
q0 -31 -18 -55.5t-47 -34.5v0zM513 172q-14 0 -23.5 -9.5t-9.5 -23t9.5 -22.5t23.5 -9q9 0 16.5 4t12 11.5t4.5 16t-4.5 16t-12 12t-16.5 4.5v0zM513 172z" />
    <glyph glyph-name="uniE606" unicode="&#xe606;" 
d="M646 -24q-3 0 -5 2l-84 65q-7 6 -2 12q2 3 5.5 3t6.5 -2l78 -60l91 109q6 6 12 0.5t1 -11.5l-97 -115q-2 -3 -6 -3zM652 -127q-70 0 -119.5 49.5t-49.5 119.5q0 45 22.5 84t61.5 62t85 23q70 0 119.5 -50t49.5 -119q0 -23 -6 -45t-17 -40.5t-26.5 -34t-34 -26.5
t-40.5 -17t-45 -6zM652 179q-57 0 -97 -40.5t-40 -97t40 -96.5t97 -40q37 0 68.5 18t50 49.5t18.5 69.5q0 56 -40 96.5t-97 40.5zM195 506zM163 506q0 13 9.5 22.5t22.5 9.5q7 0 13 -2.5t10 -6.5t6.5 -10t2.5 -13q0 -13 -9.5 -22.5t-22.5 -9.5t-22.5 9.5t-9.5 22.5zM642 490
h-383q-7 0 -11.5 5t-4.5 11.5t4.5 11t11.5 4.5h383q7 0 11.5 -4.5t4.5 -11t-4.5 -11.5t-11.5 -5zM195 389zM163 389q0 9 4.5 16.5t12 11.5t15.5 4q13 0 22.5 -9.5t9.5 -22.5q0 -8 -4 -15.5t-11.5 -12t-16.5 -4.5q-13 0 -22.5 9.5t-9.5 22.5zM642 373h-383q-7 0 -11.5 5
t-4.5 11.5t4.5 11t11.5 4.5h383q7 0 11.5 -4.5t4.5 -11t-4.5 -11.5t-11.5 -5zM753 -212h-577q-73 0 -124.5 51.5t-51.5 124.5v574q0 73 51.5 124.5t124.5 51.5h577q36 0 68.5 -14t56 -37.5t37.5 -56t14 -68.5v-574q0 -48 -23.5 -88.5t-64 -64t-88.5 -23.5zM176 682
q-60 0 -102 -42t-42 -102v-574q0 -60 42 -102t102 -42h577q60 0 102 42t42 102v574q0 39 -19.5 72t-52.5 52.5t-72 19.5h-577zM1008 -51q-13 3 -16 16v671q0 60 -42 102t-102 42l-702 -2q-7 0 -11.5 5t-4.5 11.5t4.5 11t11.5 4.5l702 2q36 0 68.5 -14t56 -37.5t37.5 -56
t14 -68.5v-671q0 -7 -4.5 -11.5t-11.5 -4.5z" />
    <glyph glyph-name="uniE607" unicode="&#xe607;" 
d="M423 46q11 -11 25.5 -11t24.5 11l213 212q5 6 8 12.5t3 13.5q-1 14 -11 25l-213 213q-10 10 -24.5 10t-25.5 -10q-5 -6 -7.5 -12.5t-2.5 -13t2.5 -13.5t7.5 -12l188 -187l-188 -188q-7 -7 -9 -16t0 -18t9 -16zM512 -193q97 0 185 37.5t152 101.5t102 152.5t38 185.5
t-38 185t-102 152t-152 101.5t-185 37.5t-185 -37.5t-152 -101.5t-102 -152t-38 -185t38 -185.5t102 -152.5t152 -101.5t185 -37.5zM516.5 701q112.5 0 208 -55.5t151 -151t55.5 -208.5t-55.5 -208.5t-151 -151t-208 -55.5t-208.5 55.5t-151 151t-55 208.5t55 208.5t151 151
t208.5 55.5z" />
    <glyph glyph-name="uniE608" unicode="&#xe608;" 
d="M600.5 521.5q-10.5 10.5 -25 10.5t-24.5 -11l-213 -212q-11 -11 -11 -25q1 -15 11 -26l213 -212q7 -7 16 -9.5t18 0t16 9.5q10 10 10 25t-10 25l-188 188l188 187q10 11 10 25.5t-10.5 25zM512 760q-97 0 -185 -37.5t-152 -101.5t-102 -152t-38 -185t38 -185.5t102 -152
t152 -101.5t185 -38t185 38t152 101.5t102 152t38 185.5q0 77 -24 150t-68.5 131.5t-103 102.5t-131 68t-150.5 24zM507.5 -134q-112.5 0 -208 55.5t-151 151t-55.5 208.5q0 43 8.5 84t24 77.5t38 70.5t50.5 61.5t61.5 50.5t70.5 38.5t78 24t84 8.5q48 0 94.5 -11
t87.5 -31.5t77 -49t64.5 -64.5t49 -76.5t31 -87t10.5 -95.5q0 -113 -55 -208.5t-151 -151t-208.5 -55.5z" />
    <glyph glyph-name="uniE609" unicode="&#xe609;" 
d="M480 684q172 0 294 -122t122 -294t-122 -294t-294 -122t-294 122t-122 294t122 294t294 122zM480 748q-98 0 -186.5 -38t-153 -102.5t-102.5 -153t-38 -186.5t38 -186.5t102.5 -153t153 -102.5t186.5 -38t186.5 38t153 102.5t102.5 153t38 186.5t-38 186.5t-102.5 153
t-153 102.5t-186.5 38zM575 342q33 37 33 86q0 53 -37.5 90.5t-90.5 37.5t-90.5 -37.5t-37.5 -90.5q0 -49 33 -86q-38 -18 -67 -48t-45.5 -70t-16.5 -84q0 -49 22 -96h75q-33 43 -33 96q0 66 47 113t113 47t113 -47t47 -113q0 -53 -33 -96h75q22 47 22 96q0 66 -35.5 120.5
t-93.5 81.5zM416 428q0 26 19 45t45 19t45 -19t19 -45t-19 -45t-45 -19t-45 19t-19 45z" />
    <glyph glyph-name="uniE60A" unicode="&#xe60a;" 
d="M823 430h-78v98q0 47 -19 90.5t-50.5 75t-75 50.5t-90.5 19q-98 0 -166.5 -69t-68.5 -166v-98h-79q-16 0 -29.5 -8t-21 -21.5t-7.5 -29.5v-470q0 -24 17 -41.5t41 -17.5h627q16 0 29.5 8t21.5 21.5t8 29.5v470q0 24 -17.5 41.5t-41.5 17.5zM314 528q0 81 57.5 138.5
t138.5 57.5t138 -57.5t57 -138.5v-98h-391v98zM843 -99q0 -8 -6 -14t-14 -6h-627q-8 0 -13.5 6t-5.5 14v470q0 8 5.5 14t13.5 6h627q8 0 14 -6t6 -14v-470zM509.5 234q-24.5 0 -41.5 -17t-17 -42q0 -26 19 -43v-55q0 -16 11.5 -27.5t28 -11.5t28 11.5t11.5 27.5v55
q19 17 19 43q0 25 -17 42t-41.5 17z" />
    <glyph glyph-name="uniE60B" unicode="&#xe60b;" 
d="M876 664q-83 83 -201 83t-201 -83q-65 -65 -79.5 -155t23.5 -169l-353 -353l6 -128l128 -6l141 141q-2 1 -4 3.5t-9 10t-12 14t-12 16.5t-9 17t-3.5 15.5t4.5 12.5q10 10 32 -1.5t39.5 -27t17.5 -16.5l-44 -44l134 134l-45 -45l-3 3t-10 10.5t-12 14.5t-11.5 17t-9 17
t-4 15.5t4.5 11.5q7 6 18 4t23.5 -10t23 -16.5t17.5 -15.5l8 -6l78 78q79 -38 169 -23.5t155 79.5q83 83 83 201t-83 201zM295 -51l-45 -45q-1 2 -3.5 4t-9 9.5t-12 14.5t-11.5 16.5t-9.5 17.5t-3.5 15.5t5 12.5q3 3 8.5 4t11.5 -1t13 -5.5t13 -7.5t13 -9t11.5 -9.5
t9.5 -8.5t6 -5zM742 395.5q-28 -27.5 -67.5 -27.5t-67 27.5t-27.5 67t28 67.5q13 13 31 20.5t36 7.5t35.5 -7.5t31.5 -20.5q28 -28 28 -67.5t-28 -67z" />
    <glyph glyph-name="uniE60C" unicode="&#xe60c;" 
d="M687 168h-364q-2 0 -4.5 -1t-4 -2.5t-2.5 -4t-1 -4.5q0 -4 1.5 -6.5t4.5 -4t6 -1.5h364q5 0 8.5 3.5t3.5 8.5q0 3 -1.5 6t-4.5 4.5t-6 1.5zM687 267h-364q-2 0 -4 -0.5t-3.5 -2t-2.5 -3t-1.5 -3t-0.5 -3.5q0 -3 1 -5t2.5 -3.5t4 -2.5t4.5 -1h364q5 0 8.5 3.5t3.5 8.5
t-3.5 8.5t-8.5 3.5zM687 366h-364q-2 0 -4 -0.5t-3 -1.5l-3 -3q-1 -1 -1.5 -3t-0.5 -4q0 -5 3.5 -8.5t8.5 -3.5h364q3 0 6 1.5t4.5 4.5t1.5 6t-1.5 6t-4.5 4.5t-6 1.5zM323 439h167q2 0 4 1t4 2.5t2.5 3.5t0.5 5t-1.5 6t-4 4.5t-5.5 1.5h-167q-2 0 -4 -0.5t-3.5 -2t-2.5 -3
t-1.5 -3t-0.5 -3.5q0 -3 1 -5t2.5 -3.5t4 -2.5t4.5 -1zM853 598l-129 127q-4 4 -9.5 6.5t-11.5 2.5h-511q-8 0 -15 -4t-11 -11t-4 -15v-729q0 -12 9 -21l91 -88q4 -4 9.5 -6t11 -2t11 2t9.5 6l92 90l96 -93q9 -8 21 -8t21 8l96 93l96 -93q8 -8 20 -8t21 8l87 84q9 9 9 21
v609q0 12 -9 21zM745 -74l-96 93q-5 5 -12.5 7t-15 0t-13.5 -7l-96 -93l-96 93q-8 8 -20.5 8t-20.5 -8l-93 -89l-60 58v686h463v-98q0 -7 5 -12.5t13 -5.5h99v-577z" />
    <glyph glyph-name="uniE60D" unicode="&#xe60d;" 
d="M749 234l253 -253q19 -18 21.5 -41t-8.5 -40t-28.5 -28.5t-40 -8.5t-41.5 21l-252 253zM711 53v-111q0 -3 -1 -6.5t-3.5 -6.5t-5.5 -5.5t-6.5 -3.5t-6.5 -1h-649q-9 0 -16.5 7t-7.5 16v793q0 9 7.5 16.5t16.5 7.5h244q8 0 12 -1t8 -6.5t4 -16.5q0 -5 -1 -9.5t-3 -7
t-3.5 -4t-5 -2t-5.5 -0.5h-6h-221v-747h603v88v9q0 3 2 7t7.5 6t13.5 2q11 0 16.5 -4t6 -8t0.5 -12zM480 675q-73 0 -134.5 -36t-97.5 -98t-36 -134q0 -111 78.5 -189.5t189 -78.5t189.5 78.5t79 189t-79 189.5t-189 79zM480 742q68 0 130 -26.5t107 -71.5t71.5 -107
t26.5 -130t-26.5 -130.5t-71.5 -107.5t-107 -71.5t-130 -26.5q-91 0 -168.5 45t-122.5 122.5t-45 168.5q0 34 7 67t19.5 63t31 57t41 49.5t50 41t57 31.5t63 19.5t67.5 6.5zM349 562q13 12 28.5 20.5t32.5 14.5q34 13 70 13q84 0 143.5 -59.5t59.5 -143.5q0 -18 -3 -35.5
t-9.5 -34.5t-15 -32.5t-20.5 -28.5q-5 -6 -8 -8.5t-9.5 -2t-15.5 7.5q-6 5 -9 10t-1.5 9t3 7t5.5 7q8 10 15 22t12 25q3 9 5 17.5t3 18t1 18.5q0 31 -12.5 60t-33.5 50t-49.5 33.5t-60.5 12.5q-28 0 -54 -9.5t-47 -27.5q-2 -2 -3.5 -3t-4 -2.5t-4.5 -2t-4.5 -0.5t-5 1.5
t-5.5 3.5t-6 6q-7 9 -7.5 15.5t2 9.5t8.5 8z" />
    <glyph glyph-name="uniE60E" unicode="&#xe60e;" 
d="M821 -147h-619q-34 0 -66 17t-52 43.5t-20 52.5v670q0 42 43 77t94 35h620q51 0 94.5 -35.5t43.5 -76.5v-670q0 -43 -43 -78t-95 -35zM890 608q0 31 -32.5 57t-70.5 26h-551q-38 0 -70.5 -26t-32.5 -57v-614q0 -31 32.5 -57.5t70.5 -26.5h551q19 0 38 7.5t33 19t23 27
t9 30.5v614zM236 164h550v-70h-550v70zM236 336h550v-70h-550v70zM236 508h550v-70h-550v70z" />
    <glyph glyph-name="uniE60F" unicode="&#xe60f;" 
d="M70 -150q-3 9 -4.5 17.5t-2.5 17.5t-1 18q0 107 106.5 188t266.5 99q-60 35 -97.5 115.5t-37.5 179.5q0 127 60 196t152 69t152 -69t60 -196q0 -99 -37.5 -179.5t-97.5 -115.5q105 -12 190 -52.5t134 -102.5t49 -132q0 -26 -8 -53h-884z" />
    <glyph glyph-name="uniE610" unicode="&#xe610;" 
d="M923 -80h-817q-11 0 -21 5.5t-15.5 15.5t-5.5 21v676q0 9 3.5 16.5t9 13.5t13.5 9t16 3q18 0 30.5 -12t12.5 -30v-535v-99h774q12 0 21.5 -5.5t15 -15t5.5 -21.5q0 -17 -12 -29.5t-30 -12.5zM825 47h-85q-9 0 -16.5 3t-13.5 9t-9 13.5t-3 16.5v296q0 17 12.5 29.5
t29.5 12.5h85q11 0 20.5 -5.5t15.5 -15.5t6 -21v-296q0 -18 -12.5 -30t-29.5 -12zM585 47h-84q-9 0 -17 3t-13.5 9t-9 13.5t-3.5 16.5v465q0 8 3.5 16t9 13.5t13.5 9t17 3.5h84q18 0 30 -12.5t12 -29.5v-465q0 -12 -5.5 -21.5t-15 -15t-21.5 -5.5zM346 47h-85
q-17 0 -29.5 12t-12.5 30v84q0 12 5.5 21.5t15.5 15.5t21 6h85q17 0 29.5 -12.5t12.5 -30.5v-84q0 -5 -1 -9.5t-3 -9t-5 -8t-7 -6.5t-8 -5t-8.5 -3t-9.5 -1z" />
    <glyph glyph-name="uniE611" unicode="&#xe611;" 
d="M588 -75l407 414l-407 413v-234q-54 0 -104.5 -7.5t-105.5 -27.5t-101 -51.5t-88.5 -82.5t-72.5 -116.5t-47.5 -158.5t-17.5 -205q15 50 41 91t55.5 70t68 51.5t72.5 36.5t75.5 23.5t70.5 13.5t64 5.5t49.5 1t32.5 -0.5q6 -1 8 -1v-235z" />
    <glyph glyph-name="uniE612" unicode="&#xe612;" 
d="M151 663q39 39 84.5 68t97 48.5t106.5 27.5q102 14 200 -11t180 -86.5t133.5 -148.5t66.5 -188q11 -70 1 -137.5t-34 -128.5t-64.5 -114t-91 -94t-113.5 -68.5t-132 -37.5q-88 -13 -175.5 5t-162.5 64q-13 8 -17 22.5t4 27.5t23 16.5t28 -3.5q134 -82 289 -60
q118 17 210 90t135.5 181t26.5 226q-12 87 -56.5 161.5t-114.5 127.5t-154 74.5t-171 8.5q-118 -17 -210 -89.5t-135.5 -181t-26.5 -226.5q13 -94 64 -174q9 -12 5.5 -27t-15.5 -23q-5 -3 -11 -4.5t-11.5 -1.5t-11 2t-10 6t-7.5 9q-60 93 -76 203q-14 102 11 200t86 180
q23 30 49 56zM151 663zM567 240zM516 -43q-23 0 -39 16.5t-16 39t16 38.5t39 16t39 -16t16 -38.5t-16 -39t-39 -16.5zM617 331q-10 -10 -15.5 -16t-14.5 -15.5t-14 -16.5t-10.5 -15.5t-7.5 -16t-2 -14.5v-62q0 -6 -2 -11.5t-5.5 -10t-8 -8t-10 -5t-11.5 -1.5q-10 0 -18.5 5
t-13.5 13t-5 18v62q0 15 3.5 28.5t10.5 27.5t14 24t19 24t19 21t20 21q20 20 30 31t20.5 26.5t10.5 27.5q0 45 -32.5 77.5t-77.5 32.5q-46 0 -78 -31t-32 -77q0 -15 -10.5 -25.5t-25.5 -10.5t-26 10.5t-11 25.5q0 75 53.5 128t129.5 53q50 0 92 -24.5t66.5 -67t24.5 -91.5
q0 -20 -6.5 -38t-20.5 -37t-24.5 -30.5t-30.5 -31.5z" />
    <glyph glyph-name="uniE613" unicode="&#xe613;" 
d="M923 352h-51q-7 33 -20 63.5t-31 58.5l41 41q8 8 8 18.5t-8 18.5l-74 74q-8 8 -19 8t-18 -8l-43 -42q-26 16 -54.5 27.5t-59.5 18.5v51q0 15 -10.5 26t-25.5 11h-92q-15 0 -26 -11t-11 -26v-52q-15 -4 -29.5 -9t-28.5 -10.5t-27.5 -13t-25.5 -15.5l-48 48q-5 5 -12 6.5
t-13.5 0t-11.5 -6.5l-75 -75q-8 -8 -8 -18.5t8 -18.5l48 -48q-35 -54 -49 -117h-38q-15 0 -26 -10.5t-11 -26.5v-90q0 -16 11 -26.5t26 -10.5h39q14 -58 45 -109l-36 -36q-7 -8 -7 -19t7 -18l74 -75q8 -7 19 -7t18 7l35 35q53 -35 116 -50v-39q0 -16 11 -26.5t26 -10.5h92
q15 0 25.5 10.5t10.5 26.5v37q21 5 41.5 12t39.5 16.5t37 20.5l34 -34q8 -8 19 -8t18 8l75 75q8 7 8 18t-8 19l-34 34q33 52 47 112h52q16 0 26.5 10.5t10.5 25.5v92q0 16 -10.5 26.5t-26.5 10.5zM515 36q-98 0 -167 69.5t-69 166.5q0 48 18.5 92t50 75.5t75.5 50t92 18.5
t91.5 -18.5t75 -50t50 -75.5t18.5 -92q0 -64 -31.5 -118t-85.5 -86t-118 -32zM515 390q-32 0 -59.5 -15.5t-43 -43t-15.5 -59.5q0 -24 9 -45.5t25 -37.5t38 -25.5t46 -9.5q48 0 83 34.5t35 83.5t-35 83.5t-83 34.5z" />
    <glyph glyph-name="uniE614" unicode="&#xe614;" 
d="M918 583q-35 47 -87 100q-17 17 -34.5 32.5t-34 29.5t-31.5 25q-35 25 -56 33.5t-35 8.5h-496q-33 0 -56.5 -23.5t-23.5 -56.5v-864q0 -33 23.5 -56.5t56.5 -23.5h736q33 0 56.5 23.5t23.5 56.5v624q0 33 -42 91zM785.5 637.5q42.5 -42.5 72.5 -81.5h-154v154
q39 -30 81.5 -72.5zM896 -132q0 -7 -4.5 -11.5t-11.5 -4.5h-736q-7 0 -11.5 4.5t-4.5 11.5v864q0 7 4.5 11.5t11.5 4.5h496v-224q0 -13 9.5 -22.5t22.5 -9.5h224v-624zM234 440v-476h544v476h-544zM438 134v102h136v-102h-136zM574 100v-102h-136v102h136zM574 372v-102
h-136v102h136zM404 372v-102h-136v102h136zM268 236h136v-102h-136v102zM608 236h136v-102h-136v102zM608 270v102h136v-102h-136zM268 100h136v-102h-136v102zM608 -2v102h136v-102h-136z" />
    <glyph glyph-name="uniE615" unicode="&#xe615;" 
d="M561 691v-56v-27l26 -6q44 -12 82 -35l23 -14l19 19l41 41l72 -73l-42 -42l-18 -18l13 -23q7 -13 13 -26t10.5 -27t8.5 -28l6 -26h27h61v-103h-64h-26l-7 -25q-11 -40 -33 -77l-14 -23l19 -18l46 -47l-72 -72l-48 47l-18 19l-23 -13q-35 -20 -76 -31l-26 -6v-27v-68h-102
v68v27l-26 6q-20 5 -39 13t-36 18l-23 13l-18 -19l-48 -47l-72 72l46 47l19 18l-14 23q-22 37 -33 77l-7 25h-26h-64v103h61h27l6 26q10 43 32 81l13 23l-19 18l-41 42l72 73l41 -41l18 -19l23 14q19 12 40 20.5t42 14.5l26 6v27v56h102zM510.5 145q63.5 0 108.5 45
t45 108.5t-45 108.5t-108.5 45t-108.5 -45t-45 -108.5t45 -108.5t108.5 -45zM596 725h-171v-90q-49 -13 -91 -39l-65 65l-121 -121l66 -66q-24 -42 -35 -90h-95v-171h98q12 -45 37 -85l-71 -71l121 -120l72 71q39 -22 84 -34v-102h171v102q44 12 84 34l72 -71l120 120
l-70 71q6 10 11.5 20t10 21t8.5 22t7 22h98v171h-95q-12 48 -36 90l66 66l-120 121l-65 -65q-43 26 -91 39v90zM510 179q-19 0 -37.5 6t-33 17t-25.5 26t-17 33t-6 38q0 49 35 84t84.5 35t84.5 -35t35 -84q0 -33 -16 -60.5t-43.5 -43.5t-60.5 -16z" />
    <glyph glyph-name="uniE616" unicode="&#xe616;" 
d="M514 750q93 0 175.5 -35.5t144 -97t97 -144t35.5 -175.5q0 -94 -35.5 -176t-97 -143.5t-144 -97t-175.5 -35.5q-94 0 -176.5 35.5t-144 97t-97 143.5t-35.5 176q0 93 35.5 175.5t97 144t144 97t176.5 35.5zM772 235q27 0 45.5 19t18.5 46t-18.5 45t-45.5 18h-192v193
q0 27 -19 46t-46 19t-45 -19t-18 -46v-193h-193q-27 0 -45 -18t-18 -45t18 -46t45 -19h193v-191q0 -27 18 -46t45 -19t46 19t19 46v191h192z" />
    <glyph glyph-name="uniE617" unicode="&#xe617;" horiz-adv-x="1025" 
d="M190 148q0 -17 8.5 -32t23.5 -23t32 -8h255v-128h-319q-52 0 -90 38t-38 90v486q0 52 38 90t90 38h602q25 0 49 -10.5t41 -27.5t27.5 -41t10.5 -49v-203l-128 -3v144q0 18 -8.5 33t-23.5 23.5t-33 8.5h-473q-17 0 -32 -8.5t-23.5 -23.5t-8.5 -33v-361zM799 303
q92 0 158.5 -65.5t66.5 -159.5t-66.5 -159.5t-158.5 -65.5q-94 0 -160 65.5t-66 159.5q0 46 18 88t48 72t72 47.5t88 17.5zM957 46v64h-127v128h-64v-128h-128v-64h128v-128h64v128h127z" />
    <glyph glyph-name="uniE618" unicode="&#xe618;" 
d="M480 748q-98 0 -186.5 -38t-153 -102.5t-102.5 -153t-38 -186.5t38 -186.5t102.5 -153t153 -102.5t186.5 -38t186.5 38t153 102.5t102.5 153t38 186.5t-38 186.5t-102.5 153t-153 102.5t-186.5 38zM704 236h-192v-192q0 -13 -9.5 -22.5t-22.5 -9.5t-22.5 9.5t-9.5 22.5
v192h-192q-13 0 -22.5 9.5t-9.5 22.5t9.5 22.5t22.5 9.5h192v192q0 13 9.5 22.5t22.5 9.5t22.5 -9.5t9.5 -22.5v-192h192q13 0 22.5 -9.5t9.5 -22.5t-9.5 -22.5t-22.5 -9.5z" />
    <glyph glyph-name="uniE619" unicode="&#xe619;" 
d="M816 76h-80v-80q0 -3 -1 -6t-3.5 -5.5t-5.5 -3.5t-6 -1h-32q-6 0 -11 4.5t-5 11.5v80h-80q-7 0 -11.5 4.5t-4.5 11.5v32q0 4 2 8t6 6t8 2h80v80q0 7 5 11.5t11 4.5h32q7 0 11.5 -4.5t4.5 -11.5v-80h80q3 0 5.5 -1t4.5 -2.5t3.5 -3.5t2 -4.5t0.5 -4.5v-32q0 -4 -2 -8
t-5.5 -6t-8.5 -2zM817 236h-34q-6 0 -10 4.5t-4 9.5l-1 4v46h-512v-192v-4q0 -2 1.5 -8.5t4 -12.5t7 -13.5t11 -13t17 -9t23.5 -3.5h240q16 -1 16 -15v-33q0 -6 -4 -10.5t-8 -4.5l-4 -1h-240q-35 0 -64.5 17t-46.5 46.5t-17 64.5v192v64v128v65q0 2 0.5 6.5t3.5 15.5t9 19
t19.5 15t31.5 7h64q13 0 23.5 -3.5t17 -9t11.5 -12.5t7 -14t3.5 -12.5t1.5 -8.5v-4h320q53 0 90.5 -37.5t37.5 -90.5v-174q0 -15 -15 -18zM768 428q0 13 -3.5 23t-9 16.5t-12.5 11.5t-14 7.5t-12.5 3.5t-8.5 2h-4h-320h-32h-32l-1 32q1 1 0.5 3.5t-2 8t-4 9.5t-9.5 7.5
t-16 3.5q-15 0 -23 -8t-8 -16l-1 -9v-31v-96v-32h512v64zM400 460h32q7 0 11.5 -4.5t4.5 -11.5v-32q0 -7 -4.5 -11.5t-11.5 -4.5h-32q-7 0 -11.5 4.5t-4.5 11.5v32q0 7 4.5 11.5t11.5 4.5zM528 460h32q7 0 11.5 -4.5t4.5 -11.5v-32q0 -7 -4.5 -11.5t-11.5 -4.5h-32
q-7 0 -11.5 4.5t-4.5 11.5v32q0 3 1 5t2.5 4t3.5 3.5t4 2.5t5 1zM656 460h32q3 0 6 -1.5t5.5 -3.5t3.5 -5t1 -6v-32q0 -7 -4.5 -11.5t-11.5 -4.5h-32q-3 0 -6 1t-5 3.5t-3.5 5.5t-1.5 6v32q0 7 4.5 11.5t11.5 4.5z" />
    <glyph glyph-name="uniE61A" unicode="&#xe61a;" 
d="M511 735q-90 0 -173 -35.5t-143 -95t-95 -142.5t-35 -174q0 -72 22.5 -140.5t63.5 -123.5t96 -96t123.5 -63.5t140.5 -22.5q91 0 174 35t142.5 95t95 143t35.5 173q0 37 -6 73t-17 69t-27 64t-36 58.5t-44.5 52t-52 44.5t-58.5 36t-64 27t-69 17t-73 6zM766 235h-195
v-195h-141v195h-183v140h183v184h141v-184h195v-140z" />
    <glyph glyph-name="uniE61B" unicode="&#xe61b;" 
d="M811 -149h-598q-18 0 -33 7.5t-24 20t-9 27.5v670q0 27 19.5 46.5t46.5 19.5h116v-37h-109q-7 0 -14 -2.5t-12 -7.5t-8 -11.5t-3 -14.5v-652q0 -13 11 -21.5t26 -8.5h584q15 0 26 8.5t11 21.5v652q0 15 -11 25.5t-26 10.5h-109v37h116q18 0 33 -9t24 -24t9 -33v-670
q0 -23 -19.5 -39t-46.5 -16zM366 425h402v-36h-402v36zM366 317h402v-35h-402v35zM366 210h402v-36h-402v36zM366 102h402v-35h-402v35zM366 -5h402v-36h-402v36zM256 426h37v-36h-37v36zM256 318h37v-36h-37v36zM256 211h37v-36h-37v36zM256 103h37v-37h-37v37zM256 -4h37
v-36h-37v36zM731 567q7 0 14 -2.5t12 -7.5t8 -11.5t3 -14.5v-7v10h-512v-8v5q0 15 11 25.5t26 10.5h109q1 51 1 109q0 22 11.5 37t30 22.5t35 10.5t32.5 3q8 0 17.5 -1t20.5 -3.5t21 -6t19.5 -9.5t16.5 -13t11.5 -17.5t4.5 -22.5l-1 -109h109zM512 680q-7 0 -14 -3t-12 -7.5
t-8 -11.5t-3 -14q0 -15 11 -25.5t26 -10.5q7 0 14 3t12 8t8 11.5t3 13.5q0 15 -11 25.5t-26 10.5z" />
    <glyph glyph-name="uniE61C" unicode="&#xe61c;" 
d="M826 -145h-628q-18 0 -30.5 12.5t-12.5 29.5v722q0 18 12.5 30.5t30.5 12.5h48q3 0 5.5 -1t5 -3t4 -4t2.5 -5t1 -5q0 -8 -5.5 -13.5t-12.5 -5.5h-48q-3 0 -5 -1.5t-2 -4.5v-722q0 -3 2 -4.5t5 -1.5h628q6 0 6 6v722q0 6 -6 6h-49q-4 0 -8.5 2.5t-7 7t-2.5 9.5q0 2 1 5
t3 5l4 4q2 2 5 3t5 1h49q7 0 13.5 -2.5t11.5 -6t9 -9t6 -12t2 -13.5v-722q0 -17 -12.5 -29.5t-29.5 -12.5zM681 577h-338q-19 0 -30 14t-6 32l12 50q4 15 18 26t30 11h48q2 0 5 1.5t5 3.5t2 4l13 50q2 10 9.5 18.5t17.5 13.5t20 5h49q5 0 10.5 -1.5t10 -3.5t9 -5.5t8 -7.5
t6 -9t3.5 -10l13 -50q2 -9 12 -9h49q3 0 6.5 -0.5t6.5 -1.5l8 -4q3 -1 6 -3t6 -5l4 -4q3 -3 5 -6t3 -6.5t2 -6.5l13 -50q2 -9 0.5 -17t-7.5 -15q-10 -14 -29 -14zM367 674q-4 0 -8 -3t-5 -7l-12 -50l339 -1q1 0 1 1l-13 50q-1 4 -5 7t-7 3h-49q-16 0 -29.5 10.5t-17.5 26.5
l-13 49q-1 4 -4.5 7t-7.5 3h-49q-10 0 -12 -10l-12 -49q-4 -16 -18 -26.5t-30 -10.5h-48zM681 433h-338q-8 0 -13.5 5t-5.5 12.5t5.5 13t13.5 5.5h338q7 0 12.5 -5.5t5.5 -13t-5.5 -12.5t-12.5 -5zM681 336h-338q-3 0 -6 1t-5 3l-4 4q-2 2 -3 5t-1 6q0 4 2.5 8.5t7 7
t9.5 2.5h338q3 0 5.5 -1t5 -3t4 -4t2.5 -5t1 -5q0 -4 -1.5 -7.5t-4 -6t-5.5 -4t-7 -1.5zM681 240h-338q-8 0 -13.5 5.5t-5.5 12.5q0 5 2.5 9t7 6.5t9.5 2.5h338q5 0 9 -2.5t6.5 -6.5t2.5 -9q0 -3 -1.5 -6.5t-4 -6t-5.5 -4t-7 -1.5zM681 144h-338q-8 0 -13.5 5t-5.5 12.5
t5.5 13t13.5 5.5h338q7 0 12.5 -5.5t5.5 -13t-5.5 -12.5t-12.5 -5zM681 47h-338q-8 0 -13.5 5.5t-5.5 13t5.5 13t13.5 5.5h338q18 0 18 -18q0 -5 -2.5 -9.5t-6.5 -7t-9 -2.5z" />
    <glyph glyph-name="uniE61D" unicode="&#xe61d;" 
d="M509.5 116q-138.5 0 -256 -33.5t-185.5 -91t-68 -125.5q0 -35 37 -52t134 -27q46 -5 108.5 -7.5t106.5 -3t126 -0.5q254 0 343 11q96 11 132.5 27.5t36.5 51.5q0 68 -69.5 125.5t-188 91t-257 33.5zM259 459q5 -45 21.5 -85.5t40.5 -71t54.5 -53.5t65.5 -34.5t71 -11.5
q93 0 166.5 71.5t86.5 184.5h174v85h-171v171q0 23 -11.5 42.5t-31 31t-42.5 11.5h-342q-35 0 -60 -25t-25 -60v-171h-171v-85h174z" />
    <glyph glyph-name="uniE61E" unicode="&#xe61e;" 
d="M865 100l135 229h-106q-7 66 -32 126.5t-65.5 109.5t-92 85t-114.5 55.5t-130 19.5q-119 0 -220 -58.5t-159 -159t-58 -219.5t58 -219.5t159 -159t220 -58.5q94 0 177.5 38t144.5 105l-43 44q-26 -28 -57.5 -51t-66.5 -39.5t-75 -25.5t-80 -9q-102 0 -188 50t-136 136.5
t-50 187.5t50 187.5t136 136.5t188 50q143 0 249.5 -96t121.5 -237h-101zM460 538q-26 0 -49 -10t-39.5 -27t-26.5 -40t-10 -48v-82h-41v-229h332v227h-41v83q-1 53 -37 89.5t-88 36.5zM522 329h-124v83q0 26 18 45t45 19q17 0 31.5 -8.5t23 -23t8.5 -32.5z" />
    <glyph glyph-name="uniE61F" unicode="&#xe61f;" 
d="M1024 473l-502 -501l-26 4l-4 26l502 502zM83 385h-11h11zM832 142v-290h-768v469h558v64h-475h-16h-59h-15q-15 0 -28.5 -6.5t-21 -18t-7.5 -24.5v-498q0 -14 7.5 -25.5t21 -18t28.5 -6.5h782q15 0 28.5 6.5t21 18t7.5 25.5v304h-64zM273 768q-81 -43 -133 -116.5
t-64 -157.5t12 -173l62 2q-41 112 1 224t149 169q58 31 122 36t122 -13t108.5 -58.5t80.5 -97.5l52 27q-36 68 -95.5 116t-128 69.5t-144.5 15t-144 -42.5z" />
    <glyph glyph-name="uniE620" unicode="&#xe620;" 
d="M918 680h-812q-17 0 -29.5 -12.5t-12.5 -29.5v-700q0 -17 12.5 -29.5t29.5 -12.5h812q28 0 39 26l3 16v700q0 17 -12.5 29.5t-29.5 12.5zM918 512v-164h-243v164h243zM391 143v163h242v-163h-242zM633 101v-163h-242v163h242zM349 143h-243v163h243v-163zM633 512v-164
h-242v164h242zM675 306h243v-163h-243v163zM400 638q9 0 16.5 -3.5t13 -9t9 -13t3.5 -16.5q0 -17 -12.5 -29.5t-29.5 -12.5t-29.5 12.5t-12.5 29.5q0 9 3.5 16.5t9 13t13 9t16.5 3.5zM274 638q9 0 16.5 -3.5t13 -9t9 -13t3.5 -16.5q0 -17 -12.5 -29.5t-29.5 -12.5
t-29.5 12.5t-12.5 29.5q0 11 5.5 21t15.5 15.5t21 5.5zM148 638q11 0 21 -5.5t15.5 -15.5t5.5 -21q0 -17 -12.5 -29.5t-29.5 -12.5t-29.5 12.5t-12.5 29.5q0 11 5.5 21t15.5 15.5t21 5.5zM148 512h201v-164h-243v164h42zM106 101h243v-163h-243v163zM675 -62v163h243v-163
h-243z" />
    <glyph glyph-name="uniE621" unicode="&#xe621;" 
d="M616 59h-264q-22 0 -38.5 15.5t-16.5 38.5l1 64q4 18 17 28q17 14 42 -1l3 -2h1l5 -2q19 -9 38 -1l4 2l4 2l2 2l4 2q1 1 2 3q7 6 11 15q3 9 3 19t-4 19q0 2 -1 3.5t-2 3.5t-2 3.5t-3 2.5l-2 3q-3 3 -7 5.5t-9 4.5q-19 8 -38 0l-5 -2q-2 -1 -4.5 -2t-4.5 -2l-4 -2
q-9 -4 -17 -4h-4q-14 2 -23 14q-6 10 -7 26v58q0 22 16.5 38.5t38.5 16.5h51q-3 7 -4.5 15.5t-1.5 16.5q0 22 9 41q8 19 22 32q7 7 15 12.5t17 10.5q41 17 81 0l6 -4l6 -2q3 -2 5.5 -4t5.5 -4t5 -4l5 -5q7 -6 12.5 -14.5t9.5 -17.5q8 -19 8 -41q0 -17 -5 -32h17q6 0 11.5 -1
t10 -3t9 -5.5t8.5 -7.5q6 -5 9.5 -11t5 -13t1.5 -14v-37q17 6 36.5 5.5t36.5 -7.5q9 -4 17.5 -9.5t15.5 -12.5q14 -14 22 -32.5t8 -39.5t-8 -40q-8 -18 -22 -32q-7 -7 -15.5 -12.5t-17.5 -9.5q-11 -5 -23.5 -7t-25 -0.5t-24.5 5.5v-33q0 -22 -16 -38t-39 -16zM337 169v-56
q0 -6 4 -10q5 -5 11 -5h264q7 1 11 5t4 10v110l33 -28q8 -7 19 -11q22 -9 45 1q12 4 20 13q3 2 4.5 4.5t3.5 5t3.5 5t2.5 5.5q5 11 5 24q0 12 -5 24l-6 10q-3 5 -7.5 9.5t-9.5 7.5t-11 6q-23 10 -45 1q-11 -5 -19 -12l-33 -28v115q0 6 -4.5 10.5t-10.5 4.5h-94l28 33
q14 16 14 39q0 7 -1 13t-4 12q-1 4 -3.5 7.5t-5 6.5t-4.5 6q-9 9 -21 14q-24 11 -49 0q-3 -1 -5.5 -2.5t-4.5 -3.5l-6 -4l-4 -4q-9 -8 -14 -20t-5 -25q0 -4 0.5 -7.5t1.5 -7t2 -6.5q4 -10 11 -19l25 -32h-125q-6 0 -10 -5q-2 -1 -3 -3t-1.5 -3.5t-0.5 -3.5v-55q5 2 7 3
q3 1 7 3q10 4 22 6t24 0.5t23 -6.5q16 -7 28 -19q6 -6 11 -13t8 -15q2 -4 3.5 -8.5t2 -8.5t1 -8.5t0.5 -9.5q0 -19 -7 -35q-2 -5 -5 -10t-6.5 -9.5t-7.5 -8.5q-6 -6 -13 -10.5t-15 -8.5q-36 -15 -70 2q-6 1 -13 5zM958 300q0 91 -35.5 173.5t-95.5 142.5t-143 95.5
t-174 35.5t-173.5 -35.5t-142.5 -95.5t-95.5 -142.5t-35.5 -173.5q0 -73 22.5 -141.5t64 -123.5t96.5 -96t123 -64t141 -23q149 0 270 92q5 6 5 13q0 8 -6 14t-14 6q-3 0 -5 -1l-6 -2q-2 -1 -3 -3h-1q-51 -38 -112 -58.5t-127 -20.5q-83 0 -158 32t-129 86t-86 129t-32 158
q0 110 54 203t147.5 147.5t203.5 54.5q66 0 127.5 -20.5t111.5 -58t87.5 -87.5t58 -111.5t20.5 -127.5q0 -103 -46 -189v-1v-1q-1 -3 -1 -4q0 -6 2.5 -10.5t7 -7t10.5 -2.5q13 0 18 13v-1q24 48 37.5 99.5t13.5 106.5v0zM510 300z" />
  </font>
</defs>
</svg>
